<?xml version="1.0" encoding="iso-8859-1"?>
<!-- Generator: Adobe Illustrator 19.0.0, SVG Export Plug-In . SVG Version: 6.00 Build 0)  -->
<svg version="1.1" id="Capa_1" xmlns="http://www.w3.org/2000/svg" xmlns:xlink="http://www.w3.org/1999/xlink" x="0px" y="0px"
	 viewBox="0 0 512 512" style="enable-background:new 0 0 512 512;" xml:space="preserve">
<path style="fill:#B7C3C8;" d="M384.425,332.704H165.589L256,512c74.779,0,135.617-60.838,135.617-135.617
	C391.617,361.434,389.198,346.738,384.425,332.704z"/>
<path style="fill:#D1DEE4;" d="M127.576,332.704c-4.773,14.034-7.192,28.73-7.192,43.678c0,74.779,60.838,135.617,135.617,135.617
	V332.703L127.576,332.704z"/>
<polygon style="fill:#9DA8AD;" points="105.315,81.621 256,442.011 451.891,295.092 451.891,81.621 "/>
<polygon style="fill:#B7C3C8;" points="60.109,81.621 60.109,295.092 256,442.011 256,81.621 "/>
<polygon style="fill:#D1DEE4;" points="256,0 185.68,88.503 256,197.147 451.891,81.621 "/>
<polygon style="fill:#EFF6F9;" points="60.109,81.621 256,197.147 256,0 "/>
<polygon style="fill:#015E82;" points="100.292,275.001 100.292,151.969 215.817,220.099 215.817,361.645 "/>
<polygon style="fill:#014059;" points="296.183,220.099 411.708,151.969 411.708,275.001 296.183,361.645 "/>
<polygon style="fill:#015E82;" points="256,43.531 209.991,87.816 256,150.497 362.284,87.816 "/>
<polygon style="fill:#007CAA;" points="149.717,87.816 256,150.497 256,43.531 "/>
<g>
</g>
<g>
</g>
<g>
</g>
<g>
</g>
<g>
</g>
<g>
</g>
<g>
</g>
<g>
</g>
<g>
</g>
<g>
</g>
<g>
</g>
<g>
</g>
<g>
</g>
<g>
</g>
<g>
</g>
</svg>
